<svg width="64" height="64" viewBox="0 0 64 64" fill="none" xmlns="http://www.w3.org/2000/svg" role="img" aria-label="BlowMind">
  <defs>
    <linearGradient id="bm" x1="0" y1="0" x2="64" y2="64" gradientUnits="userSpaceOnUse">
      <stop stop-color="#6366f1"/>
      <stop offset="1" stop-color="#06b6d4"/>
    </linearGradient>
  </defs>
  <rect width="64" height="64" rx="15" fill="url(#bm)"/>
  <path d="M22 17h13.5c5.8 0 9.7 2.9 9.7 7.9 0 3.3-1.9 5.6-4.7 6.6 3.6.8 6 3.4 6 7.2 0 5.5-4.3 8.3-10.6 8.3H22V17Zm12.4 11.6c2.6 0 4.2-1.3 4.2-3.5s-1.6-3.4-4.2-3.4h-5.6v6.9h5.6Zm.6 12.2c2.8 0 4.5-1.4 4.5-3.8s-1.7-3.7-4.6-3.7h-6.1v7.5H35Z" fill="#fff"/>
</svg>
