<svg width="1200" height="630" viewBox="0 0 1200 630" fill="none" xmlns="http://www.w3.org/2000/svg">
  <defs>
    <linearGradient id="bg" x1="0" y1="0" x2="1200" y2="630" gradientUnits="userSpaceOnUse">
      <stop stop-color="#111827"/>
      <stop offset="1" stop-color="#1e1b4b"/>
    </linearGradient>
    <linearGradient id="mark" x1="80" y1="230" x2="200" y2="350" gradientUnits="userSpaceOnUse">
      <stop stop-color="#818cf8"/>
      <stop offset="1" stop-color="#22d3ee"/>
    </linearGradient>
    <linearGradient id="accent" x1="0" y1="0" x2="600" y2="0" gradientUnits="userSpaceOnUse">
      <stop stop-color="#818cf8"/>
      <stop offset="1" stop-color="#22d3ee"/>
    </linearGradient>
  </defs>
  <rect width="1200" height="630" fill="url(#bg)"/>
  <circle cx="1050" cy="120" r="260" fill="#6366f1" opacity="0.12"/>
  <circle cx="1120" cy="560" r="180" fill="#06b6d4" opacity="0.12"/>

  <rect x="90" y="235" width="120" height="120" rx="28" fill="url(#mark)"/>
  <path d="M124 262h44c19 0 32 9.5 32 26 0 10.9-6.3 18.4-15.5 21.7 11.9 2.6 19.8 11.2 19.8 23.7 0 18.1-14.2 27.3-35 27.3H124V262Zm41 38.2c8.6 0 13.9-4.3 13.9-11.5s-5.3-11.2-13.9-11.2H147v22.7h18Zm2 40.2c9.2 0 14.8-4.6 14.8-12.5s-5.6-12.2-15.1-12.2H147v24.7h20Z" fill="#fff"/>

  <text x="240" y="320" font-family="Segoe UI, Helvetica, Arial, sans-serif" font-size="88" font-weight="800" fill="#ffffff">BlowMind</text>
  <text x="92" y="440" font-family="Segoe UI, Helvetica, Arial, sans-serif" font-size="40" font-weight="500" fill="#cbd5e1">Write, read, and connect with great minds.</text>
  <rect x="92" y="470" width="180" height="8" rx="4" fill="url(#accent)"/>
  <text x="92" y="560" font-family="Segoe UI, Helvetica, Arial, sans-serif" font-size="28" fill="#94a3b8">A modern social blogging platform</text>
</svg>
